<?xml version="1.0" encoding="UTF-8" standalone="no"?>
<svg
   xmlns:dc="http://purl.org/dc/elements/1.1/"
   xmlns:cc="http://creativecommons.org/ns#"
   xmlns:rdf="http://www.w3.org/1999/02/22-rdf-syntax-ns#"
   xmlns:svg="http://www.w3.org/2000/svg"
   xmlns="http://www.w3.org/2000/svg"
   xmlns:sodipodi="http://sodipodi.sourceforge.net/DTD/sodipodi-0.dtd"
   xmlns:inkscape="http://www.inkscape.org/namespaces/inkscape"
   version="1.1"
   id="svg121"
   xml:space="preserve"
   width="1133.8586"
   height="377.95334"
   viewBox="0 0 1133.8586 377.95334"
   sodipodi:docname="efg_haigerseelbach_logo.svg"
   inkscape:version="1.0.2 (e86c870879, 2021-01-15, custom)"><metadata
     id="metadata127"><rdf:RDF><cc:Work
         rdf:about=""><dc:format>image/svg+xml</dc:format><dc:type
           rdf:resource="http://purl.org/dc/dcmitype/StillImage" /><dc:title></dc:title></cc:Work></rdf:RDF></metadata><defs
     id="defs125"><clipPath
       clipPathUnits="userSpaceOnUse"
       id="clipPath137"><path
         d="M 0,0 H 850.394 V 283.465 H 0 Z"
         id="path135" /></clipPath></defs><sodipodi:namedview
     pagecolor="#ffffff"
     bordercolor="#666666"
     borderopacity="1"
     objecttolerance="10"
     gridtolerance="10"
     guidetolerance="10"
     inkscape:pageopacity="0"
     inkscape:pageshadow="2"
     inkscape:window-width="1920"
     inkscape:window-height="1018"
     id="namedview123"
     showgrid="false"
     inkscape:zoom="1.0689163"
     inkscape:cx="566.92932"
     inkscape:cy="188.97667"
     inkscape:window-x="-6"
     inkscape:window-y="-6"
     inkscape:window-maximized="1"
     inkscape:current-layer="g129" /><g
     id="g129"
     inkscape:groupmode="layer"
     inkscape:label="efg_haigerseelbach_logo"
     transform="matrix(1.3333333,0,0,-1.3333333,0,377.95333)"><g
       id="g131"><g
         id="g133"
         clip-path="url(#clipPath137)"><g
           id="g139"
           transform="translate(277.5185,27.8776)"><path
             d="m 0,0 v 59.459 c 0,2.257 -1.599,3.669 -3.575,3.669 -1.976,0 -3.481,-1.412 -3.481,-3.669 V 33.587 h -31.14 v 25.872 c 0,2.257 -1.506,3.669 -3.481,3.669 -1.976,0 -3.575,-1.412 -3.575,-3.669 V 0 c 0,-2.352 1.599,-3.669 3.575,-3.669 1.975,0 3.481,1.317 3.481,3.669 v 27.095 h 31.14 V 0 c 0,-2.352 1.505,-3.669 3.481,-3.669 C -1.599,-3.669 0,-2.352 0,0 m 47.415,0.188 v 29.635 c 0,11.102 -6.021,16.558 -17.687,16.558 -4.421,0 -8.561,-0.846 -11.383,-2.069 -1.412,-0.659 -2.446,-1.694 -2.446,-3.105 0,-1.787 1.317,-3.011 3.01,-3.011 1.976,0 4.986,2.07 11.29,2.07 4.327,0 7.056,-1.317 8.185,-2.164 1.411,-1.505 2.352,-4.045 2.352,-9.219 V 24.555 C 19.85,26.907 11.853,20.886 11.853,9.878 c 0,-7.808 5.833,-14.112 14.677,-14.112 6.773,0 11.666,3.67 14.582,8.75 v -4.892 c 0,-1.976 1.129,-3.293 3.105,-3.293 1.975,0 3.198,1.505 3.198,3.857 M 40.83,19.38 v -3.951 c 0,-7.903 -5.269,-14.018 -12.889,-14.018 -6.68,0 -9.879,4.14 -9.879,9.502 0,2.729 0.659,4.892 2.352,6.774 2.823,2.258 10.161,3.105 20.416,1.693 m 28.317,40.361 c 0,2.728 -1.599,4.327 -3.857,4.327 -2.352,0 -3.951,-1.693 -3.951,-4.421 0,-2.729 1.599,-4.328 3.951,-4.328 2.446,0 3.857,1.505 3.857,4.422 M 68.771,0.094 v 41.96 c 0,2.258 -1.505,3.763 -3.481,3.763 -1.976,0 -3.387,-1.505 -3.387,-3.763 V 0.094 c 0,-2.352 1.411,-3.763 3.387,-3.763 1.976,0 3.481,1.411 3.481,3.763 m 54.566,44.124 H 110.73 c -2.916,1.411 -6.774,2.163 -10.349,2.163 -11.477,0 -19.568,-6.679 -19.568,-16.652 0,-7.902 4.045,-13.171 11.854,-15.429 -2.07,-1.505 -3.575,-4.516 -3.575,-7.15 0,-3.857 2.822,-6.774 7.244,-7.997 2.822,-1.129 8.467,-1.411 10.913,-1.693 7.433,-0.659 9.502,-3.011 9.502,-6.68 0,-1.787 -0.47,-3.481 -1.881,-4.986 -2.258,-2.164 -7.056,-4.046 -13.736,-4.046 -10.161,0 -15.147,4.799 -15.523,9.126 -0.188,2.634 0.47,3.575 0.47,4.798 -0.094,1.506 -1.129,2.729 -2.822,2.729 -1.317,0 -2.164,-0.659 -2.728,-1.6 -0.753,-1.599 -1.224,-3.387 -1.224,-5.645 0,-7.714 7.245,-15.146 21.357,-15.146 15.147,0 22.391,8.09 22.391,16.275 0,3.105 -1.035,6.304 -4.234,8.374 -2.916,1.881 -6.115,2.352 -15.523,3.104 -6.209,0.471 -8.467,2.258 -8.467,5.269 0,2.258 2.069,4.139 4.045,4.233 11.102,0 20.321,4.798 20.321,16.464 0,3.952 -1.223,6.868 -2.728,9.032 h 6.868 c 1.693,0 2.822,0.941 2.822,2.728 0,1.694 -1.129,2.729 -2.822,2.729 M 110.072,21.544 c -2.635,-2.352 -6.586,-2.916 -9.785,-2.916 -9.502,0 -12.983,4.892 -12.983,11.195 0,3.858 1.506,6.962 3.858,8.938 2.54,1.599 5.362,2.352 8.467,2.352 9.031,0 13.359,-5.551 13.359,-11.384 0,-4.986 -2.07,-7.244 -2.916,-8.185 m 58.706,3.105 c 0.753,12.042 -3.951,21.732 -16.37,21.732 -12.889,0 -21.45,-10.631 -21.45,-26.436 0,-15.335 9.408,-24.179 23.332,-24.179 4.422,0 8.279,0.565 11.384,2.07 0.846,0.376 1.693,1.223 1.693,2.634 0,1.506 -1.129,2.635 -2.916,2.635 -1.6,0 -3.764,-1.412 -9.22,-1.412 -8.75,0 -16.558,4.704 -17.405,16.653 h 23.52 c 5.269,0 7.338,1.505 7.432,6.303 m -6.679,-1.317 h -24.555 c 0.188,7.244 3.293,12.983 6.115,15.241 1.788,1.317 4.234,2.07 7.338,2.07 8.279,0 12.325,-5.645 11.102,-17.311 m 42.9,19.38 c 0,1.6 -0.753,2.729 -2.352,3.105 -0.847,0.282 -1.694,0.282 -1.882,0.282 -4.704,0 -9.69,-3.481 -13.454,-8.373 v 4.892 c 0,1.506 -1.128,3.199 -3.292,3.199 -1.882,0 -3.387,-1.505 -3.387,-3.763 V 0.094 c 0,-2.258 1.411,-3.763 3.387,-3.763 2.069,0 3.481,1.505 3.481,3.763 v 31.893 c 4.421,5.175 9.22,7.809 13.829,7.621 2.446,-0.094 3.67,1.223 3.67,3.104 M 241.69,9.408 c 0,6.021 -3.387,9.784 -12.983,14.582 -7.997,3.952 -11.666,6.116 -11.666,10.349 0,3.105 1.882,4.422 2.54,5.081 1.223,0.658 3.199,1.034 5.645,1.034 5.08,0 8.938,-2.352 11.196,-2.352 1.505,0 3.01,1.223 3.01,3.011 0,1.505 -0.847,2.54 -2.164,3.105 -3.387,1.411 -6.679,2.163 -10.725,2.163 -9.502,0 -15.805,-5.456 -15.805,-13.171 0,-6.585 4.422,-9.878 12.607,-13.924 9.69,-4.704 11.948,-7.526 11.948,-10.819 0,-3.387 -1.976,-4.704 -2.635,-5.456 -0.752,-0.377 -2.634,-1.318 -6.679,-1.318 -7.244,0 -11.102,2.729 -12.983,2.729 -1.882,0 -3.105,-1.317 -3.105,-3.011 0,-1.505 0.941,-2.352 2.164,-3.104 3.293,-1.694 8.279,-2.541 12.23,-2.541 10.443,0 17.405,4.987 17.405,13.642 m 46.475,15.241 c 0.753,12.042 -3.951,21.732 -16.369,21.732 -12.889,0 -21.451,-10.631 -21.451,-26.436 0,-15.335 9.408,-24.179 23.332,-24.179 4.422,0 8.279,0.565 11.384,2.07 0.847,0.376 1.693,1.223 1.693,2.634 0,1.506 -1.129,2.635 -2.916,2.635 -1.6,0 -3.763,-1.412 -9.22,-1.412 -8.749,0 -16.558,4.704 -17.405,16.653 h 23.52 c 5.269,0 7.338,1.505 7.432,6.303 m -6.679,-1.317 h -24.555 c 0.188,7.244 3.293,12.983 6.115,15.241 1.788,1.317 4.234,2.07 7.338,2.07 8.279,0 12.325,-5.645 11.102,-17.311 m 53.907,1.317 c 0.753,12.042 -3.951,21.732 -16.37,21.732 -12.889,0 -21.45,-10.631 -21.45,-26.436 0,-15.335 9.408,-24.179 23.332,-24.179 4.422,0 8.279,0.565 11.383,2.07 0.847,0.376 1.694,1.223 1.694,2.634 0,1.506 -1.129,2.635 -2.917,2.635 -1.599,0 -3.763,-1.412 -9.219,-1.412 -8.75,0 -16.559,4.704 -17.405,16.653 h 23.52 c 5.268,0 7.338,1.505 7.432,6.303 m -6.68,-1.317 h -24.555 c 0.189,7.244 3.293,12.983 6.116,15.241 1.787,1.317 4.233,2.07 7.338,2.07 8.279,0 12.324,-5.645 11.101,-17.311 M 354.491,0.094 v 63.128 c 0,2.258 -1.506,3.669 -3.481,3.669 -1.882,0 -3.387,-1.411 -3.387,-3.669 V 0.094 c 0,-2.258 1.411,-3.763 3.387,-3.763 1.975,0 3.481,1.505 3.481,3.763 m 56.07,23.708 c 0,12.325 -6.491,22.579 -18.91,22.579 -6.303,0 -12.136,-3.481 -15.899,-8.279 v 25.12 c 0,2.258 -1.412,3.669 -3.387,3.669 -1.976,0 -3.481,-1.411 -3.481,-3.669 v -46.57 c 0,-14.018 8.091,-20.886 19.38,-20.886 13.454,0 22.297,10.161 22.297,28.036 m -6.774,-1.599 c 0,-6.868 -1.505,-12.983 -4.233,-16.652 -2.07,-2.164 -5.739,-4.046 -10.349,-4.046 -7.526,0 -13.453,4.704 -13.453,15.241 v 15.523 c 2.916,3.858 7.902,7.903 14.3,7.903 8.185,0 13.735,-6.774 13.735,-17.969 M 454.402,0.188 v 29.635 c 0,11.102 -6.021,16.558 -17.687,16.558 -4.422,0 -8.561,-0.846 -11.384,-2.069 -1.411,-0.659 -2.446,-1.694 -2.446,-3.105 0,-1.787 1.317,-3.011 3.011,-3.011 1.976,0 4.986,2.07 11.29,2.07 4.327,0 7.055,-1.317 8.184,-2.164 1.412,-1.505 2.352,-4.045 2.352,-9.219 V 24.555 C 426.837,26.907 418.84,20.886 418.84,9.878 c 0,-7.808 5.833,-14.112 14.676,-14.112 6.774,0 11.666,3.67 14.583,8.75 v -4.892 c 0,-1.976 1.129,-3.293 3.104,-3.293 1.976,0 3.199,1.505 3.199,3.857 m -6.586,19.192 v -3.951 c 0,-7.903 -5.268,-14.018 -12.888,-14.018 -6.68,0 -9.879,4.14 -9.879,9.502 0,2.729 0.659,4.892 2.352,6.774 2.823,2.258 10.161,3.105 20.415,1.693 M 500.03,0.47 c 0,1.788 -1.223,2.541 -2.54,2.541 -0.847,0 -2.07,-0.471 -2.822,-0.659 -1.976,-0.47 -3.764,-0.659 -4.798,-0.659 -9.408,0 -16.935,6.868 -16.935,19.381 0,8.373 3.011,15.147 7.15,17.687 2.258,1.129 5.081,1.505 7.433,1.505 2.352,0 4.986,-0.376 6.867,-0.846 1.129,-0.283 1.976,-0.659 2.823,-0.659 1.787,0 2.916,1.411 2.916,3.105 0,1.034 -0.658,2.352 -2.164,3.01 -1.975,0.753 -5.644,1.505 -9.219,1.505 -13.36,0 -22.674,-10.442 -22.674,-26.248 0,-15.053 9.314,-24.367 23.05,-24.367 1.976,0 5.174,0.283 7.903,1.223 1.599,0.565 3.01,1.694 3.01,3.481 m 48.733,-0.376 v 29.635 c 0,9.973 -6.68,16.652 -15.335,16.652 -6.397,0 -11.76,-3.104 -15.711,-7.62 v 16.652 8.185 c 0,1.882 -1.6,3.293 -3.481,3.293 -1.976,0 -3.387,-1.505 -3.387,-3.763 V 0.094 c 0,-2.258 1.411,-3.763 3.387,-3.763 2.069,0 3.481,1.505 3.481,3.763 v 33.493 c 3.198,3.481 7.996,6.209 12.606,6.209 7.244,0 11.572,-5.08 11.572,-13.36 V 0.094 c 0,-2.164 1.317,-3.763 3.387,-3.763 2.07,0 3.481,1.505 3.481,3.763"
             style="fill:#665b58;fill-opacity:1;fill-rule:nonzero;stroke:none"
             id="path141" /></g><g
           id="g143"
           transform="translate(282.7572,116.4994)"><path
             d="m 0,0 c 0,2.898 -2.053,5.312 -5.916,5.312 h -31.15 v 26.2 h 28.252 c 3.502,0 5.554,2.777 5.554,5.433 0,2.536 -1.932,4.95 -5.554,4.95 h -28.252 v 26.2 h 29.943 c 3.742,0 5.916,2.415 5.916,5.433 0,2.898 -2.053,5.554 -5.916,5.554 h -31.754 c -6.52,0 -9.78,-3.26 -9.78,-8.934 V 3.139 c 0,-5.433 3.26,-8.814 9.78,-8.814 H -5.916 C -2.173,-5.675 0,-2.898 0,0 m 50.588,79.082 c 0,2.173 -1.207,4.105 -4.105,4.95 -1.449,0.362 -4.105,0.604 -6.037,0.604 -11.711,0 -22.457,-8.21 -22.457,-23.664 V 57.35 h -2.656 c -3.139,0 -5.312,-1.57 -5.312,-4.709 0,-2.898 2.052,-4.83 5.312,-4.83 h 2.656 V -0.121 c 0,-3.622 2.415,-6.157 5.554,-6.157 3.26,0 5.554,2.535 5.554,6.157 v 47.932 h 12.557 c 3.501,0 6.036,1.449 6.036,4.83 0,3.38 -2.414,4.709 -6.036,4.709 h -13.04 v 4.588 c 0,4.588 1.449,8.21 2.898,10.262 2.294,1.57 4.467,2.294 8.934,2.294 1.087,0 3.622,-0.241 5.071,-0.241 3.139,0 5.071,2.294 5.071,4.829 M 120.372,6.399 v 27.045 c 0,3.984 -2.536,6.278 -6.158,6.278 H 96.587 c -3.864,0 -5.916,-2.656 -5.916,-5.191 0,-2.898 1.931,-4.951 5.916,-4.951 h 12.798 V 5.433 c -3.864,-1.449 -8.452,-2.052 -11.832,-2.052 -18.835,0 -28.736,13.281 -28.736,32.961 0,14.609 5.434,24.63 11.47,30.184 3.381,1.69 8.693,3.018 13.04,3.018 5.191,0 9.779,-0.966 14.73,-2.656 2.897,-0.845 4.225,-1.328 6.157,-1.328 2.536,0 4.95,2.052 4.95,5.312 0,2.173 -1.328,4.226 -3.622,5.433 -4.829,2.536 -11.59,4.105 -19.318,4.105 -21.853,0 -39.239,-16.058 -39.239,-45.397 0,-27.769 15.575,-42.016 38.153,-42.016 5.312,0 11.711,0.604 17.507,2.898 4.829,1.811 7.727,3.743 7.727,10.504"
             style="fill:#a89e9b;fill-opacity:1;fill-rule:nonzero;stroke:none"
             id="path145" /></g><g
           id="g147"
           transform="translate(455.5739,115.0983)"><path
             d="M 0,0 V 6.322 C 0,7.254 -0.593,7.79 -1.439,7.79 H -5.56 c -0.903,0 -1.383,-0.621 -1.383,-1.214 0,-0.677 0.451,-1.157 1.383,-1.157 h 2.992 v -5.645 c -0.904,-0.338 -1.976,-0.48 -2.766,-0.48 -4.403,0 -6.718,3.105 -6.718,7.706 0,3.415 1.27,5.757 2.682,7.056 0.79,0.395 2.032,0.705 3.048,0.705 1.213,0 2.286,-0.226 3.443,-0.621 0.678,-0.197 0.988,-0.31 1.44,-0.31 0.592,0 1.157,0.48 1.157,1.242 0,0.508 -0.311,0.987 -0.847,1.27 -1.129,0.592 -2.709,0.959 -4.516,0.959 -5.108,0 -9.173,-3.753 -9.173,-10.612 0,-6.491 3.641,-9.822 8.919,-9.822 1.242,0 2.738,0.141 4.093,0.678 C -0.677,-2.032 0,-1.581 0,0 m 20.293,-1.496 c 0,0.678 -0.48,1.242 -1.383,1.242 h -7.282 v 6.125 h 6.604 c 0.819,0 1.298,0.649 1.298,1.27 0,0.592 -0.451,1.157 -1.298,1.157 h -6.604 v 6.124 h 6.999 c 0.875,0 1.383,0.565 1.383,1.271 0,0.677 -0.48,1.298 -1.383,1.298 h -7.423 c -1.524,0 -2.286,-0.762 -2.286,-2.089 V -0.762 c 0,-1.27 0.762,-2.06 2.286,-2.06 h 7.706 c 0.874,0 1.383,0.649 1.383,1.326 m 28.054,0.96 -0.904,15.495 c -0.084,1.354 -0.79,2.173 -2.088,2.173 -0.847,0 -1.44,-0.452 -1.665,-0.79 L 38.44,2.314 h -0.141 l -5.08,13.209 c -0.311,0.875 -0.875,1.609 -2.23,1.609 -0.706,0 -1.411,-0.339 -1.694,-0.819 L 28.279,-0.988 v -0.564 c 0,-0.791 0.537,-1.412 1.27,-1.412 0.762,0 1.355,0.537 1.383,1.468 l 0.565,14.818 h 0.085 l 5.052,-13.04 c 0.254,-0.762 0.762,-1.298 1.665,-1.298 0.677,0 1.157,0.282 1.439,0.593 l 5.306,13.745 h 0.113 l 0.565,-14.677 c 0.028,-0.988 0.48,-1.609 1.411,-1.609 0.706,0 1.242,0.621 1.242,1.496 0,0.254 0,0.678 -0.028,0.932 m 20.631,-0.96 c 0,0.678 -0.48,1.242 -1.383,1.242 h -7.282 v 6.125 h 6.605 c 0.818,0 1.298,0.649 1.298,1.27 0,0.592 -0.452,1.157 -1.298,1.157 h -6.605 v 6.124 h 7 c 0.875,0 1.383,0.565 1.383,1.271 0,0.677 -0.48,1.298 -1.383,1.298 H 59.89 c -1.524,0 -2.286,-0.762 -2.286,-2.089 V -0.762 c 0,-1.27 0.762,-2.06 2.286,-2.06 h 7.705 c 0.875,0 1.383,0.649 1.383,1.326 M 80.07,-1.552 v 17.273 c 0,0.875 -0.565,1.411 -1.327,1.411 -0.79,0 -1.355,-0.536 -1.355,-1.411 V -1.552 c 0,-0.875 0.565,-1.412 1.355,-1.412 0.762,0 1.327,0.537 1.327,1.412 m 24.272,-0.537 v 17.81 c 0,0.875 -0.452,1.411 -1.242,1.411 -0.762,0 -1.214,-0.536 -1.214,-1.411 V 1.693 h -0.056 l -8.834,14.366 c -0.452,0.734 -0.903,1.073 -1.665,1.073 -0.763,0 -1.412,-0.423 -1.553,-0.903 V -1.552 c 0,-0.875 0.48,-1.412 1.242,-1.412 0.762,0 1.27,0.537 1.27,1.412 v 14.027 h 0.057 l 8.749,-14.225 c 0.508,-0.818 0.96,-1.214 1.722,-1.214 0.762,0 1.298,0.396 1.524,0.875 m 24.018,9.23 c 0,5.644 -2.935,9.85 -9.342,9.85 h -2.738 c -1.524,0 -2.286,-0.621 -2.286,-2.089 V -0.762 c 0,-1.665 1.101,-2.06 2.202,-2.06 h 3.415 c 5.87,0 8.749,4.403 8.749,9.963 m -2.738,-0.395 c 0,-2.682 -1.1,-5.194 -2.399,-6.323 -0.931,-0.508 -2.427,-0.762 -3.923,-0.762 h -2.596 v 14.818 h 2.512 c 4.318,0 6.406,-3.246 6.406,-7.733 m 22.805,-8.242 c 0,0.678 -0.48,1.242 -1.383,1.242 h -7.282 v 6.125 h 6.605 c 0.818,0 1.298,0.649 1.298,1.27 0,0.592 -0.451,1.157 -1.298,1.157 h -6.605 v 6.124 h 7 c 0.875,0 1.383,0.565 1.383,1.271 0,0.677 -0.48,1.298 -1.383,1.298 h -7.423 c -1.524,0 -2.286,-0.762 -2.286,-2.089 V -0.762 c 0,-1.27 0.762,-2.06 2.286,-2.06 h 7.705 c 0.875,0 1.383,0.649 1.383,1.326"
             style="fill:#66c430;fill-opacity:1;fill-rule:nonzero;stroke:none"
             id="path149" /></g><g
           id="g151"
           transform="translate(452.6386,159.0148)"><path
             d="m 0,0 c 0,0.621 -0.423,1.298 -1.411,1.298 h -7.451 c -1.553,0 -2.089,-0.931 -2.089,-1.919 v -16.624 c 0,-0.875 0.593,-1.411 1.355,-1.411 0.762,0 1.355,0.536 1.355,1.411 v 7.028 h 6.294 c 0.79,0 1.27,0.593 1.27,1.242 0,0.621 -0.48,1.213 -1.27,1.213 h -6.294 v 6.492 h 6.802 C -0.452,-1.27 0,-0.677 0,0 m 20.264,-16.455 -3.33,6.351 c 2.145,1.072 3.528,3.02 3.528,5.616 0,3.472 -2.202,5.786 -6.661,5.786 H 10.132 C 8.636,1.298 8.071,0.79 8.071,-0.649 v -16.596 c 0,-0.875 0.565,-1.411 1.355,-1.411 0.762,0 1.355,0.536 1.355,1.411 v 6.322 h 3.472 c 0.084,0.029 0.197,0.029 0.282,0.057 l 3.33,-6.774 c 0.226,-0.508 0.649,-1.016 1.383,-1.016 0.734,0 1.27,0.508 1.27,1.355 0,0.225 -0.084,0.536 -0.254,0.846 m -9.483,7.875 v 7.395 h 3.048 c 2.399,0 3.923,-1.327 3.923,-3.67 0,-1.749 -0.959,-2.822 -1.778,-3.302 -0.677,-0.254 -1.552,-0.423 -2.681,-0.423 z m 29.86,-8.608 c 0,0.677 -0.479,1.241 -1.383,1.241 h -7.281 v 6.125 h 6.604 c 0.819,0 1.298,0.649 1.298,1.27 0,0.593 -0.451,1.157 -1.298,1.157 h -6.604 v 6.125 h 6.999 c 0.875,0 1.383,0.564 1.383,1.27 0,0.677 -0.48,1.298 -1.383,1.298 h -7.423 c -1.524,0 -2.286,-0.762 -2.286,-2.088 v -15.665 c 0,-1.27 0.762,-2.06 2.286,-2.06 h 7.705 c 0.875,0 1.383,0.649 1.383,1.327 m 11.092,-0.057 V 0.028 c 0,0.875 -0.565,1.411 -1.327,1.411 -0.79,0 -1.354,-0.536 -1.354,-1.411 v -17.273 c 0,-0.875 0.564,-1.411 1.354,-1.411 0.762,0 1.327,0.536 1.327,1.411 m 22.438,1.157 -5.73,8.834 5.673,6.238 c 0.339,0.339 0.536,0.762 0.536,1.185 0,0.706 -0.564,1.27 -1.27,1.27 -0.423,0 -0.762,-0.141 -1.1,-0.536 l -8.157,-9.794 v 8.976 c 0,0.818 -0.565,1.354 -1.327,1.354 -0.818,0 -1.354,-0.592 -1.354,-1.354 V -17.33 c 0,-0.79 0.564,-1.326 1.354,-1.326 0.791,0 1.327,0.593 1.327,1.326 v 5.307 l 2.596,2.878 5.363,-8.636 c 0.367,-0.677 0.818,-0.875 1.242,-0.875 0.903,0 1.355,0.706 1.355,1.298 0,0.48 -0.141,0.706 -0.508,1.27 m 11.402,-1.157 V 0.028 c 0,0.875 -0.565,1.411 -1.327,1.411 -0.79,0 -1.355,-0.536 -1.355,-1.411 v -17.273 c 0,-0.875 0.565,-1.411 1.355,-1.411 0.762,0 1.327,0.536 1.327,1.411 m 21.901,0.79 -3.33,6.351 c 2.145,1.072 3.528,3.02 3.528,5.616 0,3.472 -2.202,5.786 -6.661,5.786 h -3.669 c -1.496,0 -2.061,-0.508 -2.061,-1.947 v -16.596 c 0,-0.875 0.565,-1.411 1.355,-1.411 0.762,0 1.355,0.536 1.355,1.411 v 6.322 h 3.471 c 0.085,0.029 0.198,0.029 0.283,0.057 l 3.33,-6.774 c 0.226,-0.508 0.649,-1.016 1.383,-1.016 0.734,0 1.27,0.508 1.27,1.355 0,0.225 -0.085,0.536 -0.254,0.846 m -9.483,7.875 v 7.395 h 3.048 c 2.399,0 3.923,-1.327 3.923,-3.67 0,-1.749 -0.96,-2.822 -1.778,-3.302 -0.677,-0.254 -1.552,-0.423 -2.681,-0.423 z m 31.215,-8.213 c 0,0.677 -0.451,1.185 -1.157,1.185 -0.226,0 -0.423,-0.085 -0.649,-0.141 -0.79,-0.226 -1.609,-0.48 -2.851,-0.48 -3.923,0 -6.294,2.823 -6.294,7.621 0,3.387 1.299,5.729 2.71,6.83 0.536,0.423 1.919,0.818 3.104,0.818 1.017,0 1.807,-0.169 2.738,-0.479 0.339,-0.085 0.621,-0.198 1.016,-0.198 0.706,0 1.186,0.593 1.186,1.27 0,0.536 -0.254,0.988 -0.932,1.27 -1.157,0.48 -2.568,0.706 -3.697,0.706 -5.419,0 -8.891,-4.375 -8.891,-10.556 0,-6.266 3.641,-9.878 8.891,-9.878 1.722,0 2.879,0.254 4.008,0.818 0.48,0.226 0.818,0.677 0.818,1.214 m 22.212,-0.452 V 0.028 c 0,0.875 -0.564,1.411 -1.327,1.411 -0.79,0 -1.354,-0.536 -1.354,-1.411 v -7.282 h -8.721 v 7.282 c 0,0.875 -0.565,1.411 -1.327,1.411 -0.79,0 -1.355,-0.536 -1.355,-1.411 v -17.273 c 0,-0.875 0.565,-1.411 1.355,-1.411 0.762,0 1.327,0.536 1.327,1.411 v 7.508 h 8.721 v -7.508 c 0,-0.875 0.564,-1.411 1.354,-1.411 0.763,0 1.327,0.536 1.327,1.411 m 20.095,0.057 c 0,0.649 -0.508,1.241 -1.439,1.241 h -6.266 V 0 c 0,0.903 -0.593,1.439 -1.355,1.439 -0.762,0 -1.354,-0.536 -1.354,-1.439 v -16.483 c 0,-1.242 0.649,-2.032 2.088,-2.032 h 6.887 c 0.903,0 1.439,0.593 1.439,1.327 m 10.499,-0.057 V 0.028 c 0,0.875 -0.564,1.411 -1.326,1.411 -0.791,0 -1.355,-0.536 -1.355,-1.411 v -17.273 c 0,-0.875 0.564,-1.411 1.355,-1.411 0.762,0 1.326,0.536 1.326,1.411 m 22.466,0.452 c 0,0.677 -0.452,1.185 -1.157,1.185 -0.226,0 -0.424,-0.085 -0.649,-0.141 -0.791,-0.226 -1.609,-0.48 -2.851,-0.48 -3.923,0 -6.294,2.823 -6.294,7.621 0,3.387 1.298,5.729 2.709,6.83 0.537,0.423 1.92,0.818 3.105,0.818 1.016,0 1.806,-0.169 2.738,-0.479 0.339,-0.085 0.621,-0.198 1.016,-0.198 0.706,0 1.185,0.593 1.185,1.27 0,0.536 -0.254,0.988 -0.931,1.27 -1.157,0.48 -2.568,0.706 -3.697,0.706 -5.419,0 -8.891,-4.375 -8.891,-10.556 0,-6.266 3.641,-9.878 8.891,-9.878 1.721,0 2.878,0.254 4.007,0.818 0.48,0.226 0.819,0.677 0.819,1.214 m 22.212,-0.452 V 0.028 c 0,0.875 -0.565,1.411 -1.327,1.411 -0.79,0 -1.355,-0.536 -1.355,-1.411 v -7.282 h -8.721 v 7.282 c 0,0.875 -0.564,1.411 -1.326,1.411 -0.791,0 -1.355,-0.536 -1.355,-1.411 v -17.273 c 0,-0.875 0.564,-1.411 1.355,-1.411 0.762,0 1.326,0.536 1.326,1.411 v 7.508 h 8.721 v -7.508 c 0,-0.875 0.565,-1.411 1.355,-1.411 0.762,0 1.327,0.536 1.327,1.411 m 21.026,0.057 c 0,0.677 -0.479,1.241 -1.383,1.241 h -7.281 v 6.125 h 6.604 c 0.818,0 1.298,0.649 1.298,1.27 0,0.593 -0.451,1.157 -1.298,1.157 h -6.604 v 6.125 h 6.999 c 0.875,0 1.383,0.564 1.383,1.27 0,0.677 -0.48,1.298 -1.383,1.298 h -7.423 c -1.524,0 -2.286,-0.762 -2.286,-2.088 v -15.665 c 0,-1.27 0.762,-2.06 2.286,-2.06 h 7.705 c 0.875,0 1.383,0.649 1.383,1.327"
             style="fill:#66c430;fill-opacity:1;fill-rule:nonzero;stroke:none"
             id="path153" /></g><g
           id="g155"
           transform="translate(453.0337,170.0504)"><path
             d="m 0,0 c 0,0.677 -0.48,1.242 -1.383,1.242 h -7.282 v 6.124 h 6.605 c 0.818,0 1.298,0.65 1.298,1.271 0,0.592 -0.452,1.157 -1.298,1.157 h -6.605 v 6.124 h 7 c 0.875,0 1.383,0.565 1.383,1.27 0,0.678 -0.48,1.299 -1.383,1.299 h -7.423 c -1.524,0 -2.286,-0.762 -2.286,-2.089 V 0.734 c 0,-1.27 0.762,-2.061 2.286,-2.061 h 7.705 C -0.508,-1.327 0,-0.677 0,0 m 21.111,18.628 c -0.677,0 -1.072,-0.395 -1.27,-1.073 L 14.62,1.581 H 14.535 L 9.454,17.499 c -0.169,0.621 -0.536,1.129 -1.326,1.129 -0.79,0 -1.327,-0.48 -1.327,-1.186 0,-0.338 0.113,-0.762 0.254,-1.129 l 5.391,-16.341 c 0.339,-0.96 0.903,-1.44 2.004,-1.44 0.734,0 1.383,0.283 1.722,0.621 l 6.012,17.16 c 0.112,0.367 0.225,0.763 0.225,1.045 0,0.762 -0.508,1.27 -1.298,1.27 M 43.069,0.452 37.424,17.076 c -0.338,0.987 -0.903,1.552 -1.975,1.552 -0.819,0 -1.383,-0.367 -1.694,-0.706 L 27.574,0.508 c -0.056,-0.169 -0.169,-0.452 -0.169,-0.706 0,-0.733 0.621,-1.27 1.326,-1.27 0.706,0 1.101,0.395 1.271,0.96 l 1.693,5.193 h 7.197 l 1.665,-5.221 c 0.17,-0.537 0.649,-0.932 1.383,-0.932 0.706,0 1.299,0.508 1.299,1.214 0,0.141 -0.057,0.423 -0.17,0.706 m -10.612,6.576 2.851,8.693 h 0.056 L 38.13,7.028 Z m 33.445,-7.621 v 17.81 c 0,0.875 -0.451,1.411 -1.242,1.411 -0.762,0 -1.213,-0.536 -1.213,-1.411 V 3.189 H 63.39 l -8.834,14.366 c -0.451,0.734 -0.903,1.073 -1.665,1.073 -0.762,0 -1.411,-0.424 -1.552,-0.903 V -0.056 c 0,-0.875 0.479,-1.412 1.242,-1.412 0.762,0 1.27,0.537 1.27,1.412 v 14.027 h 0.056 l 8.749,-14.225 c 0.509,-0.819 0.96,-1.214 1.722,-1.214 0.762,0 1.298,0.395 1.524,0.875 m 23.567,2.089 v 6.322 c 0,0.931 -0.593,1.468 -1.439,1.468 h -4.121 c -0.903,0 -1.383,-0.621 -1.383,-1.214 0,-0.677 0.452,-1.157 1.383,-1.157 h 2.992 V 1.27 C 85.997,0.931 84.925,0.79 84.135,0.79 c -4.403,0 -6.718,3.105 -6.718,7.705 0,3.416 1.27,5.758 2.682,7.056 0.79,0.396 2.032,0.706 3.048,0.706 1.214,0 2.286,-0.226 3.443,-0.621 0.678,-0.197 0.988,-0.31 1.44,-0.31 0.592,0 1.157,0.479 1.157,1.241 0,0.509 -0.311,0.988 -0.847,1.271 -1.129,0.592 -2.709,0.959 -4.516,0.959 -5.108,0 -9.173,-3.754 -9.173,-10.612 0,-6.492 3.641,-9.822 8.919,-9.822 1.242,0 2.738,0.141 4.093,0.677 1.129,0.424 1.806,0.875 1.806,2.456 M 109.762,0 c 0,0.677 -0.48,1.242 -1.383,1.242 h -7.282 v 6.124 h 6.604 c 0.819,0 1.298,0.65 1.298,1.271 0,0.592 -0.451,1.157 -1.298,1.157 h -6.604 v 6.124 h 6.999 c 0.875,0 1.383,0.565 1.383,1.27 0,0.678 -0.48,1.299 -1.383,1.299 h -7.423 c -1.524,0 -2.286,-0.762 -2.286,-2.089 V 0.734 c 0,-1.27 0.762,-2.061 2.286,-2.061 h 7.706 c 0.875,0 1.383,0.65 1.383,1.327 m 18.796,0 c 0,0.649 -0.508,1.242 -1.439,1.242 h -6.266 v 15.946 c 0,0.904 -0.593,1.44 -1.355,1.44 -0.762,0 -1.354,-0.536 -1.354,-1.44 V 0.706 c 0,-1.242 0.649,-2.033 2.088,-2.033 h 6.887 c 0.903,0 1.439,0.593 1.439,1.327 m 10.499,-0.056 v 17.273 c 0,0.875 -0.565,1.411 -1.327,1.411 -0.79,0 -1.354,-0.536 -1.354,-1.411 V -0.056 c 0,-0.875 0.564,-1.412 1.354,-1.412 0.762,0 1.327,0.537 1.327,1.412 m 20.631,3.979 c 0,2.794 -1.778,4.29 -5.221,6.097 -2.371,1.241 -3.782,2.06 -3.782,3.923 0,0.621 0.282,1.354 0.705,1.721 0.395,0.339 1.158,0.565 2.23,0.565 1.186,0 2.427,-0.339 3.161,-0.593 0.367,-0.113 0.678,-0.197 1.101,-0.197 0.621,0 1.157,0.395 1.157,1.241 0,0.396 -0.197,0.875 -0.706,1.214 -1.1,0.649 -2.709,0.903 -3.979,0.903 -3.867,0 -6.407,-2.342 -6.407,-5.306 0,-2.738 1.75,-4.121 4.883,-5.701 3.076,-1.524 4.177,-2.597 4.177,-4.347 0,-0.677 -0.282,-1.439 -0.734,-1.919 -0.536,-0.395 -1.496,-0.677 -2.568,-0.677 -1.27,0 -2.456,0.338 -3.5,0.762 -0.423,0.141 -0.988,0.48 -1.468,0.48 -0.677,0 -1.185,-0.565 -1.185,-1.271 0,-0.649 0.452,-1.016 0.931,-1.27 1.129,-0.649 2.936,-1.185 4.516,-1.185 3.952,0 6.689,2.286 6.689,5.56 m 21.253,-3.528 c 0,0.678 -0.452,1.186 -1.157,1.186 -0.226,0 -0.424,-0.085 -0.65,-0.142 -0.79,-0.225 -1.608,-0.479 -2.85,-0.479 -3.923,0 -6.294,2.822 -6.294,7.62 0,3.387 1.298,5.73 2.709,6.83 0.537,0.424 1.92,0.819 3.105,0.819 1.016,0 1.806,-0.17 2.738,-0.48 0.338,-0.085 0.621,-0.198 1.016,-0.198 0.705,0 1.185,0.593 1.185,1.271 0,0.536 -0.254,0.987 -0.931,1.27 -1.157,0.479 -2.569,0.705 -3.698,0.705 -5.419,0 -8.89,-4.375 -8.89,-10.556 0,-6.265 3.641,-9.878 8.89,-9.878 1.722,0 2.879,0.254 4.008,0.819 0.48,0.225 0.819,0.677 0.819,1.213 m 22.211,-0.451 v 17.273 c 0,0.875 -0.564,1.411 -1.326,1.411 -0.79,0 -1.355,-0.536 -1.355,-1.411 V 9.935 h -8.721 v 7.282 c 0,0.875 -0.564,1.411 -1.327,1.411 -0.79,0 -1.354,-0.536 -1.354,-1.411 V -0.056 c 0,-0.875 0.564,-1.412 1.354,-1.412 0.763,0 1.327,0.537 1.327,1.412 v 7.507 h 8.721 v -7.507 c 0,-0.875 0.565,-1.412 1.355,-1.412 0.762,0 1.326,0.537 1.326,1.412"
             style="fill:#66c430;fill-opacity:1;fill-rule:nonzero;stroke:none"
             id="path157" /></g><g
           id="g159"
           transform="matrix(-0.1736482,0.9848077,0.8845519,0.7422272,749.16174,291.05899)"><g
             id="g161"
             transform="translate(266.4281,-644.7087)"><path
               d="m 0,0 c 0,0 -30.42,34.967 -29.228,55.342 1.814,30.999 98.599,13.067 97.506,1.044 l 0.619,-40.714 c 0,0 -0.037,-13.922 -17.513,-14.174 z"
               style="fill:#4dbd38;fill-opacity:1;fill-rule:nonzero;stroke:none"
               id="path163" /></g></g><g
           id="g165"
           transform="matrix(0.0348995,0.9993908,-0.9792416,0.6118981,749.16174,291.05899)"><g
             id="g167"
             transform="translate(-618.8694,648.1334)"><path
               d="m 0,0 c 0,0 -25.406,43.52 -17.716,60.67 11.791,26.296 88.121,11.535 86.695,0.202 l 1.527,-47.861 c 0,0 1.003,-11.739 -18.769,-12.023 z"
               style="fill:#66c430;fill-opacity:1;fill-rule:nonzero;stroke:none"
               id="path169" /></g></g><g
           id="g171"
           transform="matrix(0.8660254,-0.5,1,0.5773503,749.16174,291.05899)"><g
             id="g173"
             transform="translate(-311.9162,-439.8652)"><path
               d="M 0,0 C -3.902,-0.828 -18.515,24.546 -33.813,49.457 -48.265,72.988 -70.945,105.5 -58.39,102.314 -42.432,98.265 -25.294,96.319 -0.148,91.973 37.376,85.489 62.611,74.601 61.342,69.836 L 61.63,18.969 c 0,0 -1.279,-6.394 -15.797,-9.229 C 45.833,9.74 3.868,0.82 0,0"
               style="fill:#80cd3d;fill-opacity:1;fill-rule:nonzero;stroke:none"
               id="path175" /></g></g><g
           id="g177"
           transform="translate(36.2645,184.2261)"><path
             d="m 0,0 c 0,0 -4.504,0 4.452,-4.742 l 51.583,-27.312 c 0,0 8.956,-4.742 8.956,-14.876 v -95.806 c 0,0 0,-10.134 -9.44,-13.818 l -13.393,-5.227 c 0,0 -19.549,-10.452 -33.328,-12.008 -9.963,-3.555 16.443,-9.778 37.557,0.667 21.114,10.445 32.248,0.385 37.559,-0.444 7.112,-1.112 12.223,8.222 39.183,-1.248 13.202,-4.638 23.5,-3.864 22.821,-1.864 -0.679,2 -9.556,4.223 -9.556,4.223 l -33.238,15.339 c 0,0 -9.202,4.246 -10.592,14.285 L 79.58,-49.086 c 0,0 -1.39,10.038 6.381,16.544 l 44.535,37.284 c 0,0 0.767,0.642 1.202,1.542 0,0 4.098,3.101 2.196,4.535 -2.132,1.608 -6.889,-0.933 -8.001,-1.822 -0.933,-0.533 -49.101,-29.952 -49.101,-29.952 0,0 -0.854,-0.521 -1.854,-0.521 h -4.473 c 0,0 -5.474,0 -15.024,3.391 L 7.331,-1.004 C 7.331,-1.004 4.504,0 1.504,0 Z"
             style="fill:#a89e9b;fill-opacity:1;fill-rule:nonzero;stroke:none"
             id="path179" /></g></g></g></g></svg>
