<?xml version="1.0" standalone="no"?>
<!DOCTYPE svg PUBLIC "-//W3C//DTD SVG 20010904//EN"
 "http://www.w3.org/TR/2001/REC-SVG-20010904/DTD/svg10.dtd">
<svg version="1.0" xmlns="http://www.w3.org/2000/svg"
 width="1181.000000pt" height="1181.000000pt" viewBox="0 0 1181.000000 1181.000000"
 preserveAspectRatio="xMidYMid meet">
<metadata>
Created by potrace 1.14, written by Peter Selinger 2001-2017
</metadata>
<g transform="translate(0.000000,1181.000000) scale(0.100000,-0.100000)"
fill="#000000" stroke="none">
<path d="M4957 11766 c-165 -59 -387 -374 -721 -1021 -65 -127 -198 -385 -296
-575 -97 -190 -268 -514 -379 -720 -233 -432 -443 -845 -512 -1007 -90 -212
-121 -350 -85 -386 22 -21 2215 -785 2351 -818 240 -59 489 -74 629 -38 33 8
404 219 1095 622 575 335 1058 615 1073 623 181 94 -84 584 -635 1175 -302
324 -530 530 -1367 1231 -201 168 -410 345 -465 393 -163 142 -441 403 -479
450 -38 46 -106 85 -147 85 -13 -1 -41 -7 -62 -14z"/>
<path d="M8302 8134 c-75 -15 -116 -37 -437 -234 -137 -84 -329 -201 -425
-260 -510 -311 -658 -401 -795 -485 -344 -211 -562 -343 -592 -359 -43 -22
-294 -22 -419 -1 -225 39 -231 41 -1524 500 -536 190 -1006 353 -1043 361 -96
20 -236 19 -244 -2 -12 -33 75 -95 302 -214 55 -29 127 -67 160 -85 33 -18
107 -57 165 -88 58 -30 285 -150 505 -267 220 -117 447 -237 505 -268 58 -30
170 -90 250 -132 80 -42 190 -101 245 -130 256 -135 306 -165 375 -227 78 -72
136 -151 181 -247 62 -132 59 -5 59 -2267 0 -2020 0 -2068 -20 -2142 -47 -186
-160 -333 -316 -411 -27 -13 -171 -72 -320 -130 -150 -58 -350 -143 -445 -190
-478 -231 -904 -379 -1210 -422 -52 -7 -106 -35 -116 -61 -10 -25 45 -67 118
-92 225 -74 635 -74 994 1 195 40 323 85 590 206 247 113 430 160 650 168 229
10 393 -24 664 -137 228 -95 249 -96 471 -29 228 68 272 75 495 75 278 -1 444
-33 846 -164 341 -110 518 -145 744 -145 195 -1 263 25 209 79 -35 35 -148 83
-314 134 -107 32 -1455 652 -1535 705 -159 105 -297 289 -339 453 -14 55 -49
296 -227 1583 -33 239 -73 530 -89 645 -244 1734 -244 1737 -243 1870 0 99 5
149 21 207 28 103 82 210 143 286 43 54 511 453 1209 1031 63 53 117 98 120
101 3 4 100 85 215 180 116 96 215 180 222 186 6 6 57 48 112 94 56 46 101 87
101 91 0 3 21 26 46 50 43 42 94 115 94 135 0 22 -27 46 -60 53 -21 5 -60 3
-98 -5z"/>
<path d="M8448 7658 c-60 -48 -1277 -1045 -1438 -1179 -211 -175 -356 -401
-425 -664 -57 -216 -57 -342 -1 -720 47 -318 118 -803 161 -1100 20 -132 51
-343 70 -470 19 -126 40 -269 46 -317 l12 -87 56 -7 c76 -10 558 -11 700 -1
667 46 1195 233 1512 534 387 369 513 1053 364 1980 -160 996 -660 2072 -962
2073 -33 0 -51 -8 -95 -42z"/>
<path d="M2685 7319 c-36 -20 -96 -83 -135 -139 -164 -239 -298 -708 -357
-1250 -21 -196 -24 -679 -5 -860 52 -492 179 -884 389 -1199 86 -129 227 -278
343 -363 395 -288 992 -484 1780 -582 199 -25 508 -51 515 -44 5 5 34 1700 37
2103 0 175 -4 311 -11 364 -42 289 -144 513 -311 681 l-95 96 -1015 600 c-945
558 -1018 599 -1065 601 -27 2 -59 -2 -70 -8z"/>
</g>
</svg>
